<svg width="34" height="35" viewBox="0 0 34 35" fill="none" xmlns="http://www.w3.org/2000/svg">
<g filter="url(#filter0_d_85_425)">
<path fill-rule="evenodd" clip-rule="evenodd" d="M18.7733 3.93704C19.2217 4.12106 19.4887 4.58524 19.4224 5.06538L18.2193 13.7742H27.2708C27.6729 13.7742 28.0405 14.0011 28.2207 14.3606C28.4008 14.72 28.3626 15.1504 28.122 15.4725L16.4813 31.0559C16.1912 31.4442 15.6751 31.587 15.2267 31.4029C14.7782 31.2189 14.5112 30.7547 14.5775 30.2746L15.7806 21.5658H6.72913C6.32705 21.5658 5.95942 21.3389 5.77926 20.9794C5.5991 20.6199 5.63728 20.1896 5.87791 19.8675L17.5187 4.28412C17.8087 3.8958 18.3249 3.75302 18.7733 3.93704ZM8.84903 19.4408H17C17.3071 19.4408 17.5992 19.5737 17.801 19.8053C18.0028 20.0369 18.0945 20.3445 18.0525 20.6487L17.2469 26.4801L25.1509 15.8992H17C16.6928 15.8992 16.4007 15.7662 16.1989 15.5347C15.9971 15.3031 15.9054 14.9955 15.9475 14.6913L16.753 8.85984L8.84903 19.4408Z" fill="white"/>
</g>
<defs>
<filter id="filter0_d_85_425" x="0" y="0.669998" width="35" height="35" filterUnits="userSpaceOnUse" color-interpolation-filters="sRGB">
<feFlood flood-opacity="0" result="BackgroundImageFix"/>
<feColorMatrix in="SourceAlpha" type="matrix" values="0 0 0 0 0 0 0 0 0 0 0 0 0 0 0 0 0 0 127 0" result="hardAlpha"/>
<feOffset dx="1" dy="1"/>
<feComposite in2="hardAlpha" operator="out"/>
<feColorMatrix type="matrix" values="0 0 0 0 0 0 0 0 0 0 0 0 0 0 0 0 0 0 0.85 0"/>
<feBlend mode="normal" in2="BackgroundImageFix" result="effect1_dropShadow_85_425"/>
<feBlend mode="normal" in="SourceGraphic" in2="effect1_dropShadow_85_425" result="shape"/>
</filter>
</defs>
</svg>
