<svg width="34" height="35" viewBox="0 0 34 35" fill="none" xmlns="http://www.w3.org/2000/svg">
<g filter="url(#filter0_d_85_435)">
<path fill-rule="evenodd" clip-rule="evenodd" d="M16.1834 8.77671C15.0929 7.46689 13.4712 6.71696 11.767 6.73443L11.7561 6.73454C8.00491 6.73454 5.30713 10.3145 5.30713 13.8283C5.30713 17.4993 7.60859 20.8647 10.3905 23.3837C11.7651 24.6284 13.2125 25.6242 14.4539 26.3034C15.0747 26.6431 15.6309 26.8964 16.0895 27.0621C16.5694 27.2356 16.8681 27.2856 16.9999 27.2856C17.1317 27.2856 17.4305 27.2356 17.9104 27.0621C18.369 26.8964 18.9252 26.6431 19.546 26.3034C20.7874 25.6242 22.2348 24.6284 23.6094 23.3837C26.3913 20.8647 28.6928 17.4993 28.6928 13.8283C28.6928 10.3145 25.995 6.73449 22.2438 6.73449H22.2329C20.5287 6.71701 18.9069 7.46689 17.8165 8.77671C17.6146 9.01919 17.3154 9.15941 16.9999 9.15941C16.6844 9.15941 16.3852 9.01919 16.1834 8.77671ZM16.9999 6.57423C15.5647 5.30034 13.697 4.59089 11.7507 4.60949C6.51956 4.61285 3.18213 9.47783 3.18213 13.8283C3.18213 18.3788 5.99839 22.2733 8.96416 24.9589C10.4634 26.3164 12.0474 27.409 13.4338 28.1676C14.127 28.5469 14.7838 28.8498 15.3673 29.0607C15.9295 29.2638 16.5018 29.4106 16.9999 29.4106C17.4981 29.4106 18.0704 29.2638 18.6326 29.0607C19.2161 28.8498 19.8729 28.5469 20.566 28.1676C21.9525 27.409 23.5365 26.3164 25.0357 24.9589C28.0015 22.2733 30.8178 18.3788 30.8178 13.8283C30.8178 9.47783 27.4803 4.61285 22.2492 4.60949C20.3029 4.59089 18.4352 5.30034 16.9999 6.57423ZM20.3785 14.2388C20.7936 14.6536 20.7939 15.3263 20.3792 15.7414L17.0968 19.0266C16.8975 19.2261 16.6271 19.3381 16.3452 19.3382C16.0633 19.3382 15.7929 19.2261 15.5936 19.0267L13.6208 17.0524C13.206 16.6374 13.2062 15.9646 13.6213 15.5498C14.0364 15.1351 14.7091 15.1353 15.1239 15.5504L16.3451 16.7725L18.8759 14.2395C19.2907 13.8244 19.9634 13.8241 20.3785 14.2388Z" fill="white"/>
</g>
<defs>
<filter id="filter0_d_85_435" x="0" y="0.0100098" width="35" height="35" filterUnits="userSpaceOnUse" color-interpolation-filters="sRGB">
<feFlood flood-opacity="0" result="BackgroundImageFix"/>
<feColorMatrix in="SourceAlpha" type="matrix" values="0 0 0 0 0 0 0 0 0 0 0 0 0 0 0 0 0 0 127 0" result="hardAlpha"/>
<feOffset dx="1" dy="1"/>
<feComposite in2="hardAlpha" operator="out"/>
<feColorMatrix type="matrix" values="0 0 0 0 0 0 0 0 0 0 0 0 0 0 0 0 0 0 0.85 0"/>
<feBlend mode="normal" in2="BackgroundImageFix" result="effect1_dropShadow_85_435"/>
<feBlend mode="normal" in="SourceGraphic" in2="effect1_dropShadow_85_435" result="shape"/>
</filter>
</defs>
</svg>
