<svg width="30" height="31" viewBox="0 0 30 31" fill="none" xmlns="http://www.w3.org/2000/svg">
<rect y="0.0100098" width="30" height="30" rx="15" fill="white"/>
<g clip-path="url(#clip0_85_445)">
<path d="M11.0298 13.4142L14.9138 9.53031L18.7999 13.4162L21.0599 11.1562L14.9138 5.01001L8.76978 11.1542L11.0298 13.4142Z" fill="#F3BA2F"/>
<path d="M9.43354 15.0097L7.17358 12.7498L4.91352 15.0098L7.17347 17.2698L9.43354 15.0097Z" fill="#F3BA2F"/>
<path d="M11.0297 16.6059L14.9137 20.4898L18.7996 16.604L21.0609 18.8627L21.0598 18.864L14.9137 25.0101L8.76952 18.8661L8.76636 18.8629L11.0297 16.6059Z" fill="#F3BA2F"/>
<path d="M22.6538 17.2708L24.9138 15.0107L22.6539 12.7508L20.3938 15.0109L22.6538 17.2708Z" fill="#F3BA2F"/>
<path d="M17.2059 15.0088H17.2069L14.9136 12.7155L13.2188 14.4103H13.2186L13.024 14.605L12.6223 15.0067L12.6191 15.0099L12.6223 15.0132L14.9136 17.3045L17.2069 15.0111L17.208 15.0099L17.2059 15.0088Z" fill="#F3BA2F"/>
</g>
<defs>
<clipPath id="clip0_85_445">
<rect width="20" height="20" fill="white" transform="translate(5 5.01001)"/>
</clipPath>
</defs>
</svg>
