<svg width="30" height="31" viewBox="0 0 30 31" fill="none" xmlns="http://www.w3.org/2000/svg">
<rect y="0.0100098" width="30" height="30" rx="15" fill="white"/>
<path fill-rule="evenodd" clip-rule="evenodd" d="M7.33792 14.2875C7.55004 14.3047 7.73923 14.1499 7.75643 13.9378C7.77363 13.7257 7.61884 13.5365 7.40672 13.5193C7.38379 13.5193 7.36085 13.5193 7.33792 13.5193H4.35102C4.1389 13.5365 3.98411 13.7257 4.0013 13.9378C4.0185 14.1213 4.16183 14.2703 4.35102 14.2875H7.33792ZM6.47224 17.1999C6.47224 17.412 6.64423 17.584 6.85635 17.584H9.84325C10.0554 17.5668 10.2102 17.3776 10.193 17.1655C10.1758 16.982 10.0324 16.833 9.84325 16.8158H6.85635C6.64423 16.8158 6.47224 16.9878 6.47224 17.1999ZM8.9833 15.1704H5.66388C5.45176 15.1704 5.27977 15.3424 5.27977 15.5545C5.27977 15.7666 5.45176 15.9386 5.66388 15.9386H8.97756C9.18969 15.9558 9.37888 15.801 9.39608 15.5889C9.41327 15.3768 9.25848 15.1876 9.04636 15.1704C9.02916 15.1704 9.00623 15.1704 8.9833 15.1704ZM4.67207 15.9444C4.88419 15.9444 5.05618 15.7724 5.05618 15.5602C5.05618 15.3481 4.88419 15.1761 4.67207 15.1761H4.52301C4.31089 15.1761 4.1389 15.3481 4.1389 15.5602C4.1389 15.7724 4.31089 15.9444 4.52301 15.9444H4.67207ZM11.523 18.8453C11.523 18.6331 11.351 18.4611 11.1389 18.4611H4.68927C4.47715 18.4783 4.32235 18.6675 4.33955 18.8797C4.35675 19.0631 4.50008 19.2122 4.68927 19.2294H11.1446C11.351 19.2294 11.523 19.0574 11.523 18.8453Z" fill="url(#paint0_linear_85_452)"/>
<path fill-rule="evenodd" clip-rule="evenodd" d="M23.4018 18.4153C22.2208 17.9394 21.6418 17.67 21.1602 18.1172C21.4068 17.6241 21.3093 17.5955 21.1029 17.2343C20.6901 16.5062 19.6009 15.3137 19.2225 13.0434C19.5435 12.1892 19.7614 11.2949 19.8818 10.3891C19.8818 10.3891 20.1111 9.72976 19.1021 10.0623C18.4772 10.4464 17.8122 10.7674 17.1242 11.0254C15.8687 10.8764 14.0284 9.97054 13.3519 8.57169C13.3519 8.57169 13.9194 7.39068 13.4264 7.1155C13.0996 6.92631 12.0677 7.98692 12.0677 7.98692L8.73679 11.8682L8.4788 12.344C8.36414 12.5561 8.38134 12.8141 8.5304 13.0033C9.41328 14.1786 12.8875 18.8109 14.8711 21.2589C9.2069 21.3047 6.14546 22.1761 8.31828 22.4743C10.0955 22.7208 14.1545 22.6462 17.2045 22.6405C17.5599 22.7437 17.9211 22.824 18.288 22.8756L23.3961 22.9272C24.0554 22.8928 24.6631 22.8412 25.139 22.7896C25.4543 22.7552 25.7237 22.5488 25.8384 22.2507C26.3888 20.783 25.5231 19.2695 23.4018 18.4153ZM13.1971 15.5946L13.0251 11.6446L14.1832 14.0697L15.433 13.5709L15.7597 17.3891L14.4411 15.0099L13.1971 15.5946Z" fill="url(#paint1_linear_85_452)"/>
<defs>
<linearGradient id="paint0_linear_85_452" x1="7.76151" y1="13.5193" x2="7.76151" y2="19.2294" gradientUnits="userSpaceOnUse">
<stop stop-color="#FFD600"/>
<stop offset="1" stop-color="#FFB800"/>
</linearGradient>
<linearGradient id="paint1_linear_85_452" x1="16.8081" y1="7.0929" x2="16.8081" y2="22.9272" gradientUnits="userSpaceOnUse">
<stop stop-color="#FFD600"/>
<stop offset="1" stop-color="#FFB800"/>
</linearGradient>
</defs>
</svg>
