<svg width="33" height="30" viewBox="0 0 33 30" fill="none" xmlns="http://www.w3.org/2000/svg">
<g clip-path="url(#clip0_85_442)">
<path fill-rule="evenodd" clip-rule="evenodd" d="M6.04229 0.821781L0.0252258 13.4391C0.00232912 13.4861 -0.00492668 13.5391 0.00451945 13.5904C0.0139656 13.6418 0.0396181 13.6887 0.0777256 13.7245L16.3284 29.27C16.3745 29.3142 16.436 29.3389 16.5 29.3389C16.5639 29.3389 16.6254 29.3142 16.6716 29.27L32.9222 13.7255C32.9603 13.6897 32.9859 13.6427 32.9954 13.5914C33.0048 13.5401 32.9976 13.487 32.9747 13.4401L26.9576 0.822752C26.9382 0.780377 26.907 0.744481 26.8677 0.719352C26.8284 0.694224 26.7826 0.680926 26.736 0.681049H6.2659C6.219 0.680467 6.17293 0.693444 6.13325 0.718415C6.09357 0.743387 6.06198 0.779285 6.04229 0.821781Z" fill="white"/>
<path fill-rule="evenodd" clip-rule="evenodd" d="M18.5879 14.7348C18.4712 14.7435 17.8684 14.7794 16.5238 14.7794C15.4544 14.7794 14.6951 14.7474 14.4287 14.7348C10.2958 14.5533 7.21096 13.8351 7.21096 12.9751C7.21096 12.1152 10.2958 11.398 14.4287 11.2136V14.0195C14.699 14.0389 15.4729 14.0845 16.5423 14.0845C17.8256 14.0845 18.4683 14.0311 18.584 14.0204V11.2155C22.7081 11.3989 25.7862 12.1172 25.7862 12.9751C25.7862 13.8331 22.7091 14.5513 18.584 14.7338L18.5879 14.7348ZM18.5879 10.9253V8.41445H24.3434V4.58557H8.67318V8.41445H14.4277V10.9243C9.75039 11.1388 6.23291 12.0638 6.23291 13.1722C6.23291 14.2806 9.75039 15.2045 14.4277 15.42V23.466H18.5869V15.4171C23.2535 15.2026 26.7652 14.2786 26.7652 13.1712C26.7652 12.0638 23.2564 11.1398 18.5869 10.9243L18.5879 10.9253Z" fill="url(#paint0_linear_85_442)"/>
</g>
<defs>
<linearGradient id="paint0_linear_85_442" x1="16.499" y1="4.58557" x2="16.499" y2="23.466" gradientUnits="userSpaceOnUse">
<stop stop-color="#FFD600"/>
<stop offset="1" stop-color="#FFB800"/>
</linearGradient>
<clipPath id="clip0_85_442">
<rect width="33" height="28.6579" fill="white" transform="translate(0 0.68103)"/>
</clipPath>
</defs>
</svg>
