<svg xmlns="http://www.w3.org/2000/svg" width="105" height="30" viewBox="0 0 105 30"><path d="M145.787,323.226a2.99,2.99,0,0,0-3.14-3.126H43.913a2.988,2.988,0,0,0-3.113,3.086V346.96a3.085,3.085,0,0,0,3.14,3.14q24.674-.02,49.36-.013h49.307a3.743,3.743,0,0,0,.671-.027,3.018,3.018,0,0,0,2.522-3.113Q145.78,335.093,145.787,323.226Zm-1.65,23.761a1.345,1.345,0,0,1-1.489,1.449H43.926a1.366,1.366,0,0,1-1.409-.872,1.421,1.421,0,0,1-.081-.523V323.159a1.361,1.361,0,0,1,1.489-1.409H91.945q25.358,0,50.7-.013a1.456,1.456,0,0,1,1.489,1.5C144.123,331.155,144.136,339.071,144.136,346.987ZM71.122,326.151a1.118,1.118,0,0,0-1.087-.9c-.08,0-.161-.013-.242-.013H52.1c-.081,0-.161.013-.242.013a1.143,1.143,0,0,0-1.073,1.234v17.831a1.167,1.167,0,0,0,1.261,1.275H69.874a1.163,1.163,0,0,0,1.275-1.288v-17.75A1.358,1.358,0,0,0,71.122,326.151Zm-2.925,8.09c-.054.5-.054.979-.08,1.476-.013.268-.054.537-.054.805-.013.174-.134.134-.228.134-.738,0-1.489.013-2.227-.013-.282-.013-.335.081-.335.349.013,1.14,0,2.281,0,3.421h.013v3.475c0,.215-.054.282-.268.268-.765-.013-1.543-.013-2.308,0-.242,0-.282-.081-.282-.3.013-2.281.013-4.575.013-6.856,0-.349,0-.349-.349-.349H60.7c-.161,0-.242-.04-.228-.215q.02-1.127,0-2.254c0-.188.067-.228.228-.228.5.013.979-.013,1.476.013.215,0,.282-.054.282-.268-.013-.684-.013-1.369,0-2.039a3.214,3.214,0,0,1,2.71-3.341,9.046,9.046,0,0,1,2.254-.081.17.17,0,0,1,.081.013c.228.04.537-.081.657.107.107.161.027.429.027.657-.013.523-.04,1.033-.04,1.556,0,.188-.054.241-.242.241-.5-.013-.979-.013-1.476,0-.792,0-1.1.282-1.127,1.073-.027.631,0,1.275-.013,1.905,0,.188.107.188.242.188h2.415C68.143,333.96,68.211,334.013,68.2,334.241ZM108,337.985c-.054.054-.107.148-.2.094-.067-.04-.04-.134-.04-.2v-3.5c0-.2-.054-.268-.255-.255q-.564.06-1.127.081c-.242,0-.322.08-.322.322.013,1.61,0,3.233,0,4.843v4.817a.458.458,0,0,0,.228.429,5.009,5.009,0,0,0,3.3.684,2.96,2.96,0,0,0,2.576-1.972,6.308,6.308,0,0,0,.134-4.24A2.623,2.623,0,0,0,108,337.985Zm2.549,4.911a1.335,1.335,0,0,1-1.194.979,2.5,2.5,0,0,1-1.4-.188.314.314,0,0,1-.2-.335c.013-.631,0-1.275,0-1.905v-1.878a.364.364,0,0,1,.188-.349,2.354,2.354,0,0,1,1.664-.376,1.128,1.128,0,0,1,.979.9A5.6,5.6,0,0,1,110.554,342.9Zm25.036,1.892c.2.376.2.389-.215.429-.389.04-.765.054-1.154.094a.32.32,0,0,1-.349-.215c-.537-1.006-1.1-2-1.637-2.992-.107-.188-.174-.215-.309-.04-.215.268-.456.537-.684.792a.473.473,0,0,0-.107.349c0,.59-.013,1.181,0,1.771,0,.215-.067.255-.268.255-.389-.013-.792-.013-1.181,0-.2.013-.255-.067-.255-.255.013-1.516,0-3.032,0-4.548v-5.863c0-.255.067-.322.309-.335.362-.013.738-.04,1.1-.081.228-.027.3.04.3.268-.013,1.959,0,3.931,0,5.89v.161c0,.054-.027.134.054.161s.107-.054.148-.107l1.637-1.959c.322-.376.631-.751.939-1.14.067-.081.121-.148.242-.121a9.82,9.82,0,0,1,1.556.335c-.631.738-1.234,1.436-1.825,2.133a7.51,7.51,0,0,1-.537.6c-.161.161-.121.268-.027.443C134.114,342.117,134.865,343.445,135.59,344.787ZM91.475,343.66h-.188c-.47,0-.564-.094-.564-.564v-2.335c0-.778-.013-1.556,0-2.335a.45.45,0,0,0-.255-.47,6.511,6.511,0,0,0-4.79-.389.152.152,0,0,0-.121.174,10.011,10.011,0,0,0,.188,1.248c.027.121.067.148.188.094a4.3,4.3,0,0,1,.912-.215,4.208,4.208,0,0,1,2.039.161.267.267,0,0,1,.2.3q-.02.6,0,1.208c0,.188-.054.241-.242.241-.631.013-1.248.04-1.878.107a2.077,2.077,0,0,0-2.106,2.026,2.036,2.036,0,0,0,2.093,2.442,3.031,3.031,0,0,0,2.147-.7c.148-.121.215-.134.309.067a1.055,1.055,0,0,0,.738.564,2.463,2.463,0,0,0,.886.04,1,1,0,0,0,.979-1.073C92.039,343.512,92.146,343.687,91.475,343.66Zm-2.388-.228a.235.235,0,0,1-.148.228,2.725,2.725,0,0,1-1.677.349.714.714,0,0,1-.657-.617,1.936,1.936,0,0,1,.027-.832.734.734,0,0,1,.6-.537,6.072,6.072,0,0,1,.993-.081c.228-.013.443-.013.671-.027.134-.013.2.013.188.174Zm28.309-6.118A3.307,3.307,0,0,0,114,338.937a4.808,4.808,0,0,0-.577,2.428c.013.255.027.523.054.778a3.941,3.941,0,0,0,.7,2,3.218,3.218,0,0,0,3.193,1.181,3.1,3.1,0,0,0,2.616-2,5.618,5.618,0,0,0,.268-3.22A3.11,3.11,0,0,0,117.4,337.314Zm.953,5.514a1.56,1.56,0,0,1-2.2.939,1.418,1.418,0,0,1-.751-1.087,6.269,6.269,0,0,1,0-2.643,1.451,1.451,0,0,1,1.825-1.248,1.273,1.273,0,0,1,.966.7,3.766,3.766,0,0,1,.335,1.852A4.282,4.282,0,0,1,118.349,342.828Zm6.762-5.514a3.261,3.261,0,0,0-3.582,2.08,5.607,5.607,0,0,0-.107,3.716,2.931,2.931,0,0,0,2.643,2.227,3.306,3.306,0,0,0,3.676-2.026,5.483,5.483,0,0,0,.376-2.026c-.027-.282-.027-.55-.067-.832A3.2,3.2,0,0,0,125.111,337.314Zm.939,5.608a1.4,1.4,0,0,1-1.543.979,1.279,1.279,0,0,1-1.3-1.033,5.441,5.441,0,0,1,.013-3.072,1.368,1.368,0,0,1,1.4-1.047,1.388,1.388,0,0,1,1.449,1.02,4.127,4.127,0,0,1,.215,1.556A4.56,4.56,0,0,1,126.05,342.922Zm-23.842-5.608a3.116,3.116,0,0,0-3.475,2.133,6.221,6.221,0,0,0-.121,3.5,2.94,2.94,0,0,0,2.241,2.267,6.136,6.136,0,0,0,3.542-.242c.148-.054.215-.134.174-.3-.081-.389-.174-.792-.282-1.181-.054-.188-.121-.188-.282-.121a4.7,4.7,0,0,1-2.227.362,1.361,1.361,0,0,1-1.422-1.114c-.04-.215-.04-.443-.067-.671-.027-.174.054-.215.215-.215.657.013,1.328,0,1.986,0h1.959c.148,0,.228-.013.242-.188a11.476,11.476,0,0,0,0-1.664A2.673,2.673,0,0,0,102.209,337.314Zm-.04,3.314h-.51c-.389,0-.765-.013-1.154,0-.174,0-.215-.054-.2-.215a3.462,3.462,0,0,1,.215-1.047,1.247,1.247,0,0,1,1.369-.765,1.1,1.1,0,0,1,1.073,1.047C103.135,340.614,103.135,340.628,102.169,340.628Zm-17.522-5.139c-.027.362-.04.711-.067,1.073-.013.2-.081.268-.3.268-1.087-.013-2.174,0-3.26-.013-.242,0-.3.067-.3.309.013.711.013,1.422,0,2.12,0,.2.04.282.268.268.872-.013,1.744,0,2.6-.013.188,0,.268.04.255.255q-.02.564,0,1.127c.013.228-.08.268-.282.268-.832-.013-1.664,0-2.5,0-.349,0-.349,0-.349.335v3.448c0,.215-.04.309-.282.3-.443-.013-.9-.013-1.342,0-.2.013-.255-.067-.255-.255.013-1.6,0-3.193,0-4.79v-4.709c0-.228.054-.282.282-.282,1.744.013,3.475.013,5.219,0C84.619,335.18,84.673,335.248,84.646,335.489Zm13.135,9.271a.194.194,0,0,1-.121.255c-1.02.443-3.207.644-4.4-.5a3.279,3.279,0,0,1-.953-1.905,6.116,6.116,0,0,1,.282-3.327A3.1,3.1,0,0,1,95.46,337.3a7.535,7.535,0,0,1,1.972.215.254.254,0,0,1,.215.349c-.094.376-.174.751-.255,1.127-.04.174-.107.228-.3.161a4.014,4.014,0,0,0-1.691-.188,1.291,1.291,0,0,0-1.167.926,3.854,3.854,0,0,0-.188,1.4,5.225,5.225,0,0,0,.107,1.234,1.421,1.421,0,0,0,1.516,1.234,3.455,3.455,0,0,0,1.6-.3c.174-.081.228-.027.268.134C97.62,343.969,97.714,344.358,97.781,344.76ZM91.958,331.8a1.815,1.815,0,0,0,1.623-.335c.08-.054.2-.188.188.054s.107.268.3.255a3.588,3.588,0,0,1,.537,0c.228.027.282-.067.282-.282-.013-1.1,0-2.2,0-3.3v-3.3c0-.2-.054-.282-.255-.255s-.429.04-.644.054c-.161,0-.215.067-.215.228.013.47,0,.926,0,1.4s0,.483-.47.4A2.021,2.021,0,0,0,90.872,328a4.394,4.394,0,0,0-.04,2.724A1.572,1.572,0,0,0,91.958,331.8Zm0-3.515a.871.871,0,0,1,.9-.7,1.98,1.98,0,0,1,.617.067c.228.054.335.161.309.4a4.332,4.332,0,0,0,0,.59v.564c0,.389-.013.792,0,1.181a.3.3,0,0,1-.228.335,2.154,2.154,0,0,1-.926.121.742.742,0,0,1-.684-.59A3.93,3.93,0,0,1,91.958,328.284Zm21.547.134a2,2,0,0,0-1.959-1.771,2.115,2.115,0,0,0-2.281,1.556,3.8,3.8,0,0,0-.013,2.12,2.18,2.18,0,0,0,3.569.966,2.742,2.742,0,0,0,.765-2.08A5.106,5.106,0,0,0,113.506,328.418Zm-1.248,1.878a.92.92,0,0,1-1.033.6.83.83,0,0,1-.818-.684,3.6,3.6,0,0,1,.027-1.959.845.845,0,0,1,.9-.657.892.892,0,0,1,.939.644,1.569,1.569,0,0,1,.094.335c.027.228.04.443.054.631A3.548,3.548,0,0,1,112.258,330.3Zm-33.582,1.462c-.255.027-.3-.081-.3-.309.013-.979,0-1.972,0-2.952v-2.952c0-.2.04-.268.255-.255,1.087.013,2.174.013,3.247,0,.215,0,.255.081.242.268-.054.792-.054.792-.832.792-.47,0-.939.013-1.4,0-.255-.013-.322.081-.309.322a10.528,10.528,0,0,1,0,1.127c-.013.268.08.309.322.309.5-.013.979,0,1.476-.013.188,0,.228.067.228.228-.013.255.08.59-.04.751s-.483.054-.738.054c-.309.013-.631.013-.939,0-.215-.013-.309.027-.3.282.027.684,0,1.369.013,2.039.013.268-.08.349-.335.322A1.825,1.825,0,0,0,78.676,331.759Zm19.4-1.234c-.027-1.194-.013-2.388-.013-3.569,0-.134.054-.188.188-.2.228-.013.443-.013.671-.04.188-.027.242.054.242.242-.013,1.047,0,2.093,0,3.14,0,.564.2.765.751.778a3.037,3.037,0,0,0,.349-.013c.6-.067.684-.161.684-.765,0-.993.013-1.986,0-2.979,0-.255.04-.389.322-.362a4.354,4.354,0,0,0,.59-.027c.134-.013.188.04.188.188V331.6c0,.134-.04.188-.188.188a4.744,4.744,0,0,0-.617,0c-.242.027-.335-.054-.3-.3a1.413,1.413,0,0,1-.013-.161,2.187,2.187,0,0,1-1.462.55A1.352,1.352,0,0,1,98.076,330.525Zm-12.317.389c-.013-.564,0-1.127,0-1.691V327c0-.174.04-.242.215-.242a5.183,5.183,0,0,0,.644-.04c.188-.027.255.054.242.242,0,.067-.054.174.04.215s.134-.067.2-.121a1.914,1.914,0,0,1,1.731-.335,1.212,1.212,0,0,1,.9,1.208c.027.7.013,1.4.013,2.093v1.5c0,.174-.04.255-.228.242-.282-.027-.631.107-.805-.054s-.054-.523-.067-.792c-.013-.845,0-1.69,0-2.522,0-.59-.215-.792-.805-.765a1.547,1.547,0,0,0-.349.04c-.59.134-.644.2-.644.805V331.5c0,.2-.054.282-.255.255-.268-.027-.631.121-.805-.067C85.652,331.531,85.76,331.182,85.76,330.914Zm28.766.59c.013-.751,0-1.5,0-2.254V327c0-.174.04-.242.228-.242.148,0,.309-.027.456-.04.376-.027.376-.027.416.349.027.215.107.094.188.04a1.945,1.945,0,0,1,1.342-.456,1.289,1.289,0,0,1,1.355,1.328c.027,1.194.013,2.4.013,3.6,0,.148-.054.188-.188.188-.282-.013-.644.107-.832-.054s-.054-.523-.067-.792c-.013-.818,0-1.65,0-2.469,0-.657-.228-.872-.886-.818a1.481,1.481,0,0,0-.242.027c-.6.121-.684.215-.684.832v3.005c0,.215-.054.3-.268.268a4.331,4.331,0,0,0-.59,0C114.566,331.773,114.525,331.692,114.525,331.5Zm-9.016.228a3.152,3.152,0,0,1-.711.121,3.828,3.828,0,0,1-1.449-.241c-.134-.054-.215-.107-.161-.268.081-.242.067-.55.215-.711.174-.174.416.094.644.121a5.13,5.13,0,0,0,.912.094c.242-.013.456-.081.51-.376a.456.456,0,0,0-.309-.55c-.282-.121-.59-.215-.886-.335a1.426,1.426,0,0,1-1.033-1.006,1.471,1.471,0,0,1,.778-1.664,2.486,2.486,0,0,1,1.275-.268,5.711,5.711,0,0,1,.939.094c.161.027.215.107.188.255-.04.228-.013.51-.134.671-.161.215-.416-.013-.631-.027a7.042,7.042,0,0,0-.751-.04c-.322.013-.5.134-.537.376-.054.268.054.443.376.564s.631.215.926.349a1.449,1.449,0,0,1,.953,1.476A1.465,1.465,0,0,1,105.509,331.732ZM84.3,326.916v4.656c0,.134-.04.188-.188.188a6.047,6.047,0,0,0-.7,0c-.174.013-.215-.067-.215-.215v-4.562c0-.174.054-.241.228-.228a5.591,5.591,0,0,0,.671,0C84.23,326.741,84.3,326.768,84.3,326.916ZM83.117,325.4a.629.629,0,0,1,.617-.671.62.62,0,0,1,.631.657.61.61,0,0,1-.617.657A.6.6,0,0,1,83.117,325.4Z" transform="translate(-40.8 -320.1)" fill="#0165e1"/></svg>