<svg width="20" height="20" fill="none" xmlns="http://www.w3.org/2000/svg"><g clip-path="url(#clip0_314_532)" fill="#F3BA2F"><path d="M6.03 8.404L9.914 4.52 13.8 8.406l2.26-2.26L9.914 0 3.77 6.144l2.26 2.26zM4.434 10l-2.26-2.26L-.086 10l2.26 2.26L4.434 10zm1.596 1.596l3.884 3.884 3.886-3.886 2.26 2.259L9.914 20 3.77 13.856l-.004-.003 2.264-2.257zm11.624.664l2.26-2.26-2.26-2.26-2.26 2.26 2.26 2.26z"/><path d="M12.206 9.999h.001L9.914 7.705 8.219 9.4l-.195.195-.402.402L7.62 10l.003.003 2.292 2.291 2.293-2.293.001-.001-.002-.001z"/></g><defs><clipPath id="clip0_314_532"><path fill="#fff" d="M0 0h20v20H0z"/></clipPath></defs></svg>