<svg width="167" height="34" fill="none" xmlns="http://www.w3.org/2000/svg"><path d="M61.419 26.462V2.925h9.25c2.332 0 4.027.54 5.087 1.622 1.08 1.06 1.62 2.577 1.62 4.549 0 .932-.137 1.76-.413 2.48-.254.7-.625 1.283-1.112 1.75a3.975 3.975 0 01-1.748.922c.508.127.996.329 1.462.604.487.276.922.647 1.303 1.114.403.466.71 1.039.922 1.717.233.658.35 1.421.35 2.29 0 1.59-.276 2.863-.827 3.817-.53.954-1.324 1.643-2.384 2.068-1.038.402-2.32.604-3.846.604h-9.664zm4.705-4.23h4.832c.55 0 1.027-.106 1.43-.318.403-.213.71-.541.922-.986.233-.446.35-1.04.35-1.782 0-.614-.117-1.134-.35-1.558a2.511 2.511 0 00-.954-.986c-.403-.233-.869-.35-1.398-.35h-4.832v5.98zm0-9.606H70.7c.678 0 1.208-.244 1.59-.731.402-.51.604-1.167.604-1.972.02-1.04-.191-1.76-.636-2.163-.445-.403-.986-.605-1.621-.605h-4.514v5.471zM88.438 26.62c-1.4 0-2.597-.137-3.593-.413-.995-.296-1.811-.784-2.447-1.463-.615-.678-1.07-1.58-1.367-2.703-.276-1.124-.413-2.513-.413-4.167 0-1.739.137-3.17.413-4.294.297-1.145.752-2.035 1.367-2.671.636-.658 1.452-1.114 2.448-1.368 1.017-.276 2.214-.414 3.592-.414 1.42 0 2.627.138 3.623.414.996.275 1.802.742 2.416 1.4.636.635 1.092 1.526 1.367 2.671.297 1.124.445 2.545.445 4.262 0 1.697-.137 3.117-.413 4.262-.275 1.124-.72 2.015-1.335 2.672s-1.43 1.124-2.448 1.4c-.996.275-2.214.413-3.655.413zm0-3.752c.572 0 1.049-.053 1.43-.16a1.67 1.67 0 00.954-.635c.254-.34.445-.849.572-1.527.127-.679.19-1.57.19-2.672 0-1.124-.063-2.014-.19-2.672-.127-.678-.318-1.177-.572-1.495a1.622 1.622 0 00-.954-.668c-.381-.105-.858-.159-1.43-.159-.551 0-1.028.053-1.43.16-.382.106-.7.328-.954.668-.255.317-.446.816-.573 1.494-.106.658-.159 1.548-.159 2.672 0 1.103.053 1.993.16 2.672.126.678.317 1.187.572 1.527.254.318.572.53.953.636.403.106.88.159 1.43.159zm16.568 3.785c-1.336 0-2.459-.276-3.37-.827-.911-.573-1.6-1.485-2.066-2.736-.445-1.272-.668-2.936-.668-4.993 0-2.12.19-3.838.572-5.153.403-1.315 1.071-2.28 2.003-2.894.932-.615 2.215-.923 3.846-.923.785 0 1.558.085 2.321.255.763.148 1.441.328 2.034.54V2.195h4.737v24.268h-3.974l-.763-1.622c-.36.339-.805.646-1.335.922a8.394 8.394 0 01-1.621.668 6.809 6.809 0 01-1.716.223zm1.653-3.785c.635 0 1.208-.106 1.716-.318.53-.212.964-.424 1.303-.636v-8.588a47.397 47.397 0 00-1.335-.446 4.896 4.896 0 00-1.494-.222c-.784 0-1.42.138-1.907.413-.466.276-.805.796-1.017 1.559-.212.742-.318 1.823-.318 3.244 0 1.315.095 2.343.286 3.085.212.721.54 1.22.985 1.495.445.276 1.039.414 1.781.414zM123.284 34l1.844-7.538c-.954 0-1.791-.18-2.511-.54a5.025 5.025 0 01-1.812-1.527c-.467-.68-.827-1.517-1.081-2.513l-3.211-12.5h4.896l2.702 11.546c.106.402.243.72.413.954.169.233.35.403.54.509.191.085.361.148.509.19.169.022.297.032.381.032l3.084-13.231h4.768l-5.086 21.47L127.194 34h-3.91z" fill="#131313"/><path d="M138.443 26.323v-13.68H136v-2.511l2.443-.628V7.56c0-1.318.167-2.364.501-3.138.355-.774.898-1.338 1.628-1.694.731-.356 1.671-.533 2.819-.533.835 0 1.587.052 2.255.156.689.084 1.252.2 1.691.346v2.792c-.355-.02-.783-.042-1.284-.063a15.9 15.9 0 00-1.378-.062c-.606 0-1.086.104-1.441.313-.334.21-.574.513-.72.91-.125.398-.188.9-.188 1.506v1.412h9.333v3.138h-9.333v13.68h-3.883zm11.337 0V9.504h3.883v16.819h-3.883zm.501-19.486c-.397 0-.595-.188-.595-.564V3.417c0-.418.198-.627.595-.627h2.943c.188 0 .324.062.408.188a.668.668 0 01.156.44v2.855c0 .376-.188.564-.564.564h-2.943zm13.454 19.486c-1.211 0-2.203-.178-2.976-.534-.772-.376-1.336-.993-1.691-1.851-.334-.858-.49-1.987-.469-3.389l.125-7.907h-2.631v-2.51l2.756-.628.564-4.706h3.038v4.706h4.259v3.138h-4.259v7.876c0 .544.052.993.156 1.349.105.335.251.607.439.816.208.188.428.324.657.408.23.083.47.136.721.157l2.098.22v2.855h-2.787z" fill="#F70544"/><path fill-rule="evenodd" clip-rule="evenodd" d="M4.387 0H3.29v5.484a1.097 1.097 0 11-2.193 0V0H1a1 1 0 00-1 1v9.161a3 3 0 002.194 2.89v16.013a1.645 1.645 0 103.29 0V13.052a3.001 3.001 0 002.193-2.89V1a1 1 0 00-1-1h-.096v5.484a1.097 1.097 0 11-2.194 0V0zm45.516 0a2.742 2.742 0 00-2.742 2.742v13.161c0 1.327.942 2.433 2.194 2.687v10.474a1.645 1.645 0 003.29 0V2.742A2.742 2.742 0 0049.903 0zM9.871 9.323c0 .31.015.619.045.922a5.65 5.65 0 00-.045.723c0 .75.053 1.482.152 2.193H20.92l2.287-4.574a1.645 1.645 0 012.956.026l4.521 9.454 1.823-3.95A1.645 1.645 0 0134 13.161h10.845c.08-.707.123-1.438.123-2.193 0-.252-.016-.493-.045-.724A9.323 9.323 0 0027.42 4.931 9.323 9.323 0 009.871 9.322zM27.42 31.807s-12.881-5.234-16.571-15.355h11.088c.623 0 1.192-.353 1.47-.91l1.239-2.475 4.58 9.578a1.645 1.645 0 002.978-.02l2.85-6.173h9.107c-3.447 11.2-16.74 15.355-16.74 15.355z" fill="#F70544"/></svg>