<svg width="30" height="30" viewBox="0 0 30 30" fill="none" xmlns="http://www.w3.org/2000/svg">
<rect width="30" height="30" rx="15" fill="white"/>
<g clip-path="url(#clip0_47_161)">
<path d="M11.0296 13.4042L14.9137 9.5203L18.7997 13.4062L21.0597 11.1462L14.9137 5L8.76965 11.1442L11.0296 13.4042Z" fill="#F3BA2F"/>
<path d="M9.43366 14.9996L7.17371 12.7397L4.91364 14.9998L7.17359 17.2597L9.43366 14.9996Z" fill="#F3BA2F"/>
<path d="M11.0297 16.5958L14.9137 20.4797L18.7996 16.5939L21.0609 18.8527L21.0598 18.8539L14.9137 25L8.76952 18.856L8.76636 18.8528L11.0297 16.5958Z" fill="#F3BA2F"/>
<path d="M22.6539 17.2608L24.9139 15.0007L22.654 12.7408L20.3939 15.0008L22.6539 17.2608Z" fill="#F3BA2F"/>
<path d="M17.2061 14.9988H17.207L14.9137 12.7055L13.2189 14.4003H13.2187L13.0241 14.5951L12.6224 14.9968L12.6193 14.9999L12.6224 15.0032L14.9137 17.2945L17.207 15.0012L17.2081 14.9999L17.2061 14.9988Z" fill="#F3BA2F"/>
</g>
<defs>
<clipPath id="clip0_47_161">
<rect width="20" height="20" fill="white" transform="translate(5 5)"/>
</clipPath>
</defs>
</svg>
